<mxfile host="app.diagrams.net" modified="2022-07-14T20:46:05.990Z" agent="5.0 (X11)" etag="WP7CIS3ymWJSQJXNs784" version="20.0.4" type="github" pages="3">
  <diagram id="ftekjp4evxQTDbUhnL-L" name="Page-1">
    <mxGraphModel dx="3296" dy="2139" grid="1" gridSize="10" guides="1" tooltips="1" connect="1" arrows="1" fold="1" page="0" pageScale="1" pageWidth="850" pageHeight="1100" math="0" shadow="0">
      <root>
        <mxCell id="0" />
        <mxCell id="1" parent="0" />
        <mxCell id="hG6LAnQAgxeCxiIPLAjW-1" value="internet-host-23" style="swimlane;fontStyle=0;childLayout=stackLayout;horizontal=1;startSize=30;horizontalStack=0;resizeParent=1;resizeParentMax=0;resizeLast=0;collapsible=1;marginBottom=0;" vertex="1" parent="1">
          <mxGeometry x="-600" y="160" width="240" height="270" as="geometry" />
        </mxCell>
        <mxCell id="hG6LAnQAgxeCxiIPLAjW-2" value="10.50.27.49" style="text;strokeColor=none;fillColor=none;align=left;verticalAlign=middle;spacingLeft=4;spacingRight=4;overflow=hidden;points=[[0,0.5],[1,0.5]];portConstraint=eastwest;rotatable=0;" vertex="1" parent="hG6LAnQAgxeCxiIPLAjW-1">
          <mxGeometry y="30" width="240" height="30" as="geometry" />
        </mxCell>
        <mxCell id="hG6LAnQAgxeCxiIPLAjW-3" value="10.10.0.40" style="text;strokeColor=none;fillColor=none;align=left;verticalAlign=middle;spacingLeft=4;spacingRight=4;overflow=hidden;points=[[0,0.5],[1,0.5]];portConstraint=eastwest;rotatable=0;" vertex="1" parent="hG6LAnQAgxeCxiIPLAjW-1">
          <mxGeometry y="60" width="240" height="30" as="geometry" />
        </mxCell>
        <mxCell id="hG6LAnQAgxeCxiIPLAjW-4" value="ports 32300-3299" style="text;strokeColor=none;fillColor=none;align=left;verticalAlign=middle;spacingLeft=4;spacingRight=4;overflow=hidden;points=[[0,0.5],[1,0.5]];portConstraint=eastwest;rotatable=0;" vertex="1" parent="hG6LAnQAgxeCxiIPLAjW-1">
          <mxGeometry y="90" width="240" height="30" as="geometry" />
        </mxCell>
        <mxCell id="hG6LAnQAgxeCxiIPLAjW-6" value="ports in use:" style="text;strokeColor=none;fillColor=none;align=left;verticalAlign=middle;spacingLeft=4;spacingRight=4;overflow=hidden;points=[[0,0.5],[1,0.5]];portConstraint=eastwest;rotatable=0;" vertex="1" parent="hG6LAnQAgxeCxiIPLAjW-1">
          <mxGeometry y="120" width="240" height="30" as="geometry" />
        </mxCell>
        <mxCell id="hG6LAnQAgxeCxiIPLAjW-7" value="x" style="text;strokeColor=none;fillColor=none;align=left;verticalAlign=middle;spacingLeft=4;spacingRight=4;overflow=hidden;points=[[0,0.5],[1,0.5]];portConstraint=eastwest;rotatable=0;" vertex="1" parent="hG6LAnQAgxeCxiIPLAjW-1">
          <mxGeometry y="150" width="240" height="30" as="geometry" />
        </mxCell>
        <mxCell id="hG6LAnQAgxeCxiIPLAjW-8" value="y" style="text;strokeColor=none;fillColor=none;align=left;verticalAlign=middle;spacingLeft=4;spacingRight=4;overflow=hidden;points=[[0,0.5],[1,0.5]];portConstraint=eastwest;rotatable=0;" vertex="1" parent="hG6LAnQAgxeCxiIPLAjW-1">
          <mxGeometry y="180" width="240" height="30" as="geometry" />
        </mxCell>
        <mxCell id="hG6LAnQAgxeCxiIPLAjW-9" value="z" style="text;strokeColor=none;fillColor=none;align=left;verticalAlign=middle;spacingLeft=4;spacingRight=4;overflow=hidden;points=[[0,0.5],[1,0.5]];portConstraint=eastwest;rotatable=0;" vertex="1" parent="hG6LAnQAgxeCxiIPLAjW-1">
          <mxGeometry y="210" width="240" height="30" as="geometry" />
        </mxCell>
        <mxCell id="hG6LAnQAgxeCxiIPLAjW-10" value="a" style="text;strokeColor=none;fillColor=none;align=left;verticalAlign=middle;spacingLeft=4;spacingRight=4;overflow=hidden;points=[[0,0.5],[1,0.5]];portConstraint=eastwest;rotatable=0;" vertex="1" parent="hG6LAnQAgxeCxiIPLAjW-1">
          <mxGeometry y="240" width="240" height="30" as="geometry" />
        </mxCell>
        <mxCell id="hG6LAnQAgxeCxiIPLAjW-12" value="Atropia T3" style="swimlane;fontStyle=0;childLayout=stackLayout;horizontal=1;startSize=30;horizontalStack=0;resizeParent=1;resizeParentMax=0;resizeLast=0;collapsible=1;marginBottom=0;" vertex="1" parent="1">
          <mxGeometry x="-120" y="40" width="260" height="180" as="geometry" />
        </mxCell>
        <mxCell id="hG6LAnQAgxeCxiIPLAjW-13" value="10.50.29.96" style="text;strokeColor=none;fillColor=none;align=left;verticalAlign=middle;spacingLeft=4;spacingRight=4;overflow=hidden;points=[[0,0.5],[1,0.5]];portConstraint=eastwest;rotatable=0;" vertex="1" parent="hG6LAnQAgxeCxiIPLAjW-12">
          <mxGeometry y="30" width="260" height="30" as="geometry" />
        </mxCell>
        <mxCell id="hG6LAnQAgxeCxiIPLAjW-34" value="10.3.0.10/24 (USE FOR TUNNELS)" style="text;strokeColor=none;fillColor=none;align=left;verticalAlign=middle;spacingLeft=4;spacingRight=4;overflow=hidden;points=[[0,0.5],[1,0.5]];portConstraint=eastwest;rotatable=0;" vertex="1" parent="hG6LAnQAgxeCxiIPLAjW-12">
          <mxGeometry y="60" width="260" height="30" as="geometry" />
        </mxCell>
        <mxCell id="hG6LAnQAgxeCxiIPLAjW-14" value="22" style="text;strokeColor=none;fillColor=none;align=left;verticalAlign=middle;spacingLeft=4;spacingRight=4;overflow=hidden;points=[[0,0.5],[1,0.5]];portConstraint=eastwest;rotatable=0;" vertex="1" parent="hG6LAnQAgxeCxiIPLAjW-12">
          <mxGeometry y="90" width="260" height="30" as="geometry" />
        </mxCell>
        <mxCell id="hG6LAnQAgxeCxiIPLAjW-15" value="Nmap scan report for 10.50.29.96&#xa;22/tcp open     ssh&#xa;" style="text;strokeColor=none;fillColor=none;align=left;verticalAlign=middle;spacingLeft=4;spacingRight=4;overflow=hidden;points=[[0,0.5],[1,0.5]];portConstraint=eastwest;rotatable=0;" vertex="1" parent="hG6LAnQAgxeCxiIPLAjW-12">
          <mxGeometry y="120" width="260" height="60" as="geometry" />
        </mxCell>
        <mxCell id="hG6LAnQAgxeCxiIPLAjW-16" value="Pineland T4" style="swimlane;fontStyle=0;childLayout=stackLayout;horizontal=1;startSize=30;horizontalStack=0;resizeParent=1;resizeParentMax=0;resizeLast=0;collapsible=1;marginBottom=0;" vertex="1" parent="1">
          <mxGeometry x="-120" y="440" width="260" height="190" as="geometry" />
        </mxCell>
        <mxCell id="hG6LAnQAgxeCxiIPLAjW-17" value="10.50.21.23" style="text;strokeColor=none;fillColor=none;align=left;verticalAlign=middle;spacingLeft=4;spacingRight=4;overflow=hidden;points=[[0,0.5],[1,0.5]];portConstraint=eastwest;rotatable=0;" vertex="1" parent="hG6LAnQAgxeCxiIPLAjW-16">
          <mxGeometry y="30" width="260" height="30" as="geometry" />
        </mxCell>
        <mxCell id="hG6LAnQAgxeCxiIPLAjW-18" value="23" style="text;strokeColor=none;fillColor=none;align=left;verticalAlign=middle;spacingLeft=4;spacingRight=4;overflow=hidden;points=[[0,0.5],[1,0.5]];portConstraint=eastwest;rotatable=0;" vertex="1" parent="hG6LAnQAgxeCxiIPLAjW-16">
          <mxGeometry y="60" width="260" height="30" as="geometry" />
        </mxCell>
        <mxCell id="hG6LAnQAgxeCxiIPLAjW-19" value="Nmap scan report for 10.50.21.23&#xa;23/tcp open     telnet" style="text;strokeColor=none;fillColor=none;align=left;verticalAlign=middle;spacingLeft=4;spacingRight=4;overflow=hidden;points=[[0,0.5],[1,0.5]];portConstraint=eastwest;rotatable=0;" vertex="1" parent="hG6LAnQAgxeCxiIPLAjW-16">
          <mxGeometry y="90" width="260" height="50" as="geometry" />
        </mxCell>
        <mxCell id="hG6LAnQAgxeCxiIPLAjW-51" value="10.2.0.1/25 subnet access&#xa;" style="text;strokeColor=none;fillColor=none;align=left;verticalAlign=middle;spacingLeft=4;spacingRight=4;overflow=hidden;points=[[0,0.5],[1,0.5]];portConstraint=eastwest;rotatable=0;" vertex="1" parent="hG6LAnQAgxeCxiIPLAjW-16">
          <mxGeometry y="140" width="260" height="50" as="geometry" />
        </mxCell>
        <mxCell id="hG6LAnQAgxeCxiIPLAjW-21" style="edgeStyle=orthogonalEdgeStyle;rounded=0;orthogonalLoop=1;jettySize=auto;html=1;exitX=1;exitY=0.5;exitDx=0;exitDy=0;entryX=0;entryY=0.5;entryDx=0;entryDy=0;" edge="1" parent="1" source="hG6LAnQAgxeCxiIPLAjW-3" target="hG6LAnQAgxeCxiIPLAjW-14">
          <mxGeometry relative="1" as="geometry" />
        </mxCell>
        <mxCell id="hG6LAnQAgxeCxiIPLAjW-26" style="edgeStyle=orthogonalEdgeStyle;rounded=0;orthogonalLoop=1;jettySize=auto;html=1;" edge="1" parent="1" source="hG6LAnQAgxeCxiIPLAjW-10" target="hG6LAnQAgxeCxiIPLAjW-18">
          <mxGeometry relative="1" as="geometry" />
        </mxCell>
        <mxCell id="hG6LAnQAgxeCxiIPLAjW-27" value="" style="endArrow=none;dashed=1;html=1;rounded=0;" edge="1" parent="1">
          <mxGeometry width="50" height="50" relative="1" as="geometry">
            <mxPoint x="-240" y="580" as="sourcePoint" />
            <mxPoint x="-240" y="50" as="targetPoint" />
          </mxGeometry>
        </mxCell>
        <mxCell id="hG6LAnQAgxeCxiIPLAjW-33" value="&lt;div style=&quot;font-size: 15px;&quot; align=&quot;left&quot;&gt;&lt;font style=&quot;font-size: 15px;&quot;&gt;Net Recon Methodology:&lt;/font&gt;&lt;/div&gt;&lt;div style=&quot;font-size: 15px;&quot; align=&quot;left&quot;&gt;&lt;font style=&quot;font-size: 15px;&quot;&gt;1. host discovery&lt;/font&gt;&lt;/div&gt;&lt;div style=&quot;font-size: 15px;&quot; align=&quot;left&quot;&gt;&lt;font style=&quot;font-size: 15px;&quot;&gt;&lt;span style=&quot;white-space: pre;&quot;&gt;	&lt;/span&gt;-nmap &amp;lt;ip/subnet&amp;gt; -T4 -Pn -p 21-23,80 --min-rate 8000 2&amp;gt;/dev/null | egrep &quot;scan|open&quot;&lt;br&gt;&lt;/font&gt;&lt;/div&gt;&lt;div style=&quot;font-size: 15px;&quot; align=&quot;left&quot;&gt;&lt;font style=&quot;font-size: 15px;&quot;&gt;&lt;span style=&quot;white-space: pre;&quot;&gt;	&lt;/span&gt;-nc -nvzw1 &amp;lt;ip&amp;gt; 21-23 80 2&amp;gt;$1 | egrep &quot;[Oo]pen|[Rr]efused&quot; &lt;br&gt;&lt;/font&gt;&lt;/div&gt;&lt;div style=&quot;font-size: 15px;&quot; align=&quot;left&quot;&gt;&lt;font style=&quot;font-size: 15px;&quot;&gt;&lt;span style=&quot;white-space: pre;&quot;&gt;	&lt;/span&gt;&lt;span style=&quot;white-space: pre;&quot;&gt;	&lt;/span&gt;can be prededed with;&lt;/font&gt;&lt;/div&gt;&lt;div style=&quot;font-size: 15px;&quot; align=&quot;left&quot;&gt;&lt;font style=&quot;font-size: 15px;&quot;&gt;&lt;span style=&quot;white-space: pre;&quot;&gt;	&lt;/span&gt;&lt;span style=&quot;white-space: pre;&quot;&gt;	&lt;/span&gt;for i in {1..254}; do &amp;lt;nc cmd here&amp;gt;&lt;br&gt;&lt;/font&gt;&lt;/div&gt;&lt;div style=&quot;font-size: 15px;&quot; align=&quot;left&quot;&gt;&lt;font style=&quot;font-size: 15px;&quot;&gt;&lt;span style=&quot;white-space: pre;&quot;&gt;	&lt;/span&gt;-ping sweep (perform locally)&lt;br&gt;&lt;/font&gt;&lt;/div&gt;&lt;div style=&quot;font-size: 15px;&quot; align=&quot;left&quot;&gt;&lt;font style=&quot;font-size: 15px;&quot;&gt;&lt;span style=&quot;white-space: pre;&quot;&gt;	&lt;/span&gt;&lt;span style=&quot;white-space: pre;&quot;&gt;	&lt;/span&gt;for i in {1..254}; do (ping -c 1 -W 1 xxx.xxx.xxx.$i 2&amp;gt;/dev/null | egrep &quot;bytes from&quot; &amp;amp;); done&lt;/font&gt;&lt;/div&gt;&lt;div style=&quot;font-size: 15px;&quot; align=&quot;left&quot;&gt;&lt;font style=&quot;font-size: 15px;&quot;&gt;&lt;span style=&quot;white-space: pre;&quot;&gt;	&lt;/span&gt;&lt;span style=&quot;white-space: pre;&quot;&gt;	&lt;/span&gt;very fast&lt;br&gt;&lt;/font&gt;&lt;/div&gt;&lt;div style=&quot;font-size: 15px;&quot; align=&quot;left&quot;&gt;&lt;font style=&quot;font-size: 15px;&quot;&gt;&lt;span style=&quot;white-space: pre;&quot;&gt;	&lt;/span&gt;-./scan.sh&lt;br&gt;&lt;/font&gt;&lt;/div&gt;&lt;div style=&quot;font-size: 15px;&quot; align=&quot;left&quot;&gt;&lt;font style=&quot;font-size: 15px;&quot;&gt;2. service/port discovery&lt;/font&gt;&lt;/div&gt;&lt;div style=&quot;font-size: 15px;&quot; align=&quot;left&quot;&gt;&lt;font style=&quot;font-size: 15px;&quot;&gt;&lt;span style=&quot;white-space: pre;&quot;&gt;	&lt;/span&gt;-nmap (cheat sheet, -sS, -sT)&lt;br&gt;&lt;/font&gt;&lt;/div&gt;&lt;div style=&quot;font-size: 15px;&quot; align=&quot;left&quot;&gt;&lt;font style=&quot;font-size: 15px;&quot;&gt;&lt;span style=&quot;white-space: pre;&quot;&gt;	&lt;/span&gt;-nc&lt;/font&gt;&lt;/div&gt;&lt;div style=&quot;font-size: 15px;&quot; align=&quot;left&quot;&gt;&lt;font style=&quot;font-size: 15px;&quot;&gt;&lt;span style=&quot;white-space: pre;&quot;&gt;	&lt;/span&gt;-scan.sh&lt;/font&gt;&lt;/div&gt;&lt;div style=&quot;font-size: 15px;&quot; align=&quot;left&quot;&gt;&lt;font style=&quot;font-size: 15px;&quot;&gt;3. service/port validation&lt;/font&gt;&lt;/div&gt;&lt;div style=&quot;font-size: 15px;&quot; align=&quot;left&quot;&gt;&lt;font style=&quot;font-size: 15px;&quot;&gt;&lt;span style=&quot;white-space: pre;&quot;&gt;	&lt;/span&gt;-nc banner grabbing&lt;/font&gt;&lt;/div&gt;&lt;div style=&quot;font-size: 15px;&quot; align=&quot;left&quot;&gt;&lt;font style=&quot;font-size: 15px;&quot;&gt;&lt;span style=&quot;white-space: pre;&quot;&gt;	&lt;/span&gt;&lt;span style=&quot;white-space: pre;&quot;&gt;	&lt;/span&gt;nc &amp;lt;ip&amp;gt; &amp;lt;port&amp;gt;&lt;/font&gt;&lt;/div&gt;&lt;div style=&quot;font-size: 15px;&quot; align=&quot;left&quot;&gt;&lt;font style=&quot;font-size: 15px;&quot;&gt;4. follow on actions based on ports found&lt;/font&gt;&lt;/div&gt;&lt;div style=&quot;font-size: 15px;&quot; align=&quot;left&quot;&gt;&lt;font style=&quot;font-size: 15px;&quot;&gt;&lt;span style=&quot;white-space: pre;&quot;&gt;	&lt;/span&gt;-if 21 or 80, wget -r IP || wget -r ftp://IP&lt;/font&gt;&lt;/div&gt;&lt;div style=&quot;font-size: 15px;&quot; align=&quot;left&quot;&gt;&lt;font style=&quot;font-size: 15px;&quot;&gt;&lt;span style=&quot;white-space: pre;&quot;&gt;	&lt;/span&gt;-if 22 or 23, connect and perform passive recon&lt;br&gt;&lt;/font&gt;&lt;/div&gt;&lt;div style=&quot;font-size: 15px;&quot; align=&quot;left&quot;&gt;&lt;font style=&quot;font-size: 15px;&quot;&gt;Scan methodology:&lt;/font&gt;&lt;/div&gt;&lt;div style=&quot;font-size: 15px;&quot; align=&quot;left&quot;&gt;&lt;font style=&quot;font-size: 15px;&quot;&gt;&lt;span style=&quot;white-space: pre;&quot;&gt;	&lt;/span&gt;-quick scan ports 21-23,80&lt;/font&gt;&lt;/div&gt;&lt;div style=&quot;font-size: 15px;&quot; align=&quot;left&quot;&gt;&lt;font style=&quot;font-size: 15px;&quot;&gt;&lt;span style=&quot;white-space: pre;&quot;&gt;	&lt;/span&gt;-0-1023 &lt;br&gt;&lt;/font&gt;&lt;/div&gt;&lt;div style=&quot;font-size: 15px;&quot; align=&quot;left&quot;&gt;&lt;font style=&quot;font-size: 15px;&quot;&gt;&lt;span style=&quot;white-space: pre;&quot;&gt;	&lt;/span&gt;-chunks of 2000&lt;/font&gt;&lt;/div&gt;&lt;div style=&quot;font-size: 15px;&quot; align=&quot;left&quot;&gt;&lt;font style=&quot;font-size: 15px;&quot;&gt;&lt;span style=&quot;white-space: pre;&quot;&gt;	&lt;/span&gt;-first 10k&lt;/font&gt;&lt;/div&gt;&lt;div style=&quot;font-size: 15px;&quot; align=&quot;left&quot;&gt;&lt;font style=&quot;font-size: 15px;&quot;&gt;&lt;span style=&quot;white-space: pre;&quot;&gt;	&lt;/span&gt;-Hail Mary 65335 (-p-)&lt;br&gt;&lt;/font&gt;&lt;/div&gt;&lt;div style=&quot;font-size: 15px;&quot; align=&quot;left&quot;&gt;&lt;font style=&quot;font-size: 15px;&quot;&gt;Passive recon methodology:&lt;/font&gt;&lt;/div&gt;&lt;div style=&quot;font-size: 15px;&quot; align=&quot;left&quot;&gt;&lt;font style=&quot;font-size: 15px;&quot;&gt;&lt;span style=&quot;white-space: pre;&quot;&gt;	&lt;/span&gt;-netstat -nltp / anob&lt;br&gt;&lt;/font&gt;&lt;/div&gt;&lt;div style=&quot;font-size: 15px;&quot; align=&quot;left&quot;&gt;&lt;font style=&quot;font-size: 15px;&quot;&gt;&lt;span style=&quot;white-space: pre;&quot;&gt;	&lt;/span&gt;-ip a&lt;/font&gt;&lt;/div&gt;&lt;div style=&quot;font-size: 15px;&quot; align=&quot;left&quot;&gt;&lt;font style=&quot;font-size: 15px;&quot;&gt;&lt;span style=&quot;white-space: pre;&quot;&gt;	&lt;/span&gt;-sudo route&lt;/font&gt;&lt;/div&gt;&lt;div style=&quot;font-size: 15px;&quot; align=&quot;left&quot;&gt;&lt;font style=&quot;font-size: 15px;&quot;&gt;&lt;span style=&quot;white-space: pre;&quot;&gt;	&lt;/span&gt;-arp -a || ip neigh&lt;/font&gt;&lt;/div&gt;&lt;div style=&quot;font-size: 15px;&quot; align=&quot;left&quot;&gt;&lt;font style=&quot;font-size: 15px;&quot;&gt;&lt;span style=&quot;white-space: pre;&quot;&gt;	&lt;/span&gt;&lt;span style=&quot;white-space: pre;&quot;&gt;	&lt;/span&gt;stale or other&lt;br&gt;&lt;/font&gt;&lt;/div&gt;&lt;div style=&quot;font-size: 15px;&quot; align=&quot;left&quot;&gt;&lt;font style=&quot;font-size: 15px;&quot;&gt;&lt;span style=&quot;white-space: pre;&quot;&gt;	&lt;/span&gt;-find&lt;/font&gt;&lt;/div&gt;&lt;div style=&quot;font-size: 15px;&quot; align=&quot;left&quot;&gt;&lt;font style=&quot;font-size: 15px;&quot;&gt;&lt;span style=&quot;white-space: pre;&quot;&gt;	&lt;/span&gt;&lt;span style=&quot;white-space: pre;&quot;&gt;	&lt;/span&gt;find / -type f -iname &quot;*.pcap&quot; 2&amp;gt;/dev/null&lt;/font&gt;&lt;/div&gt;&lt;div style=&quot;font-size: 15px;&quot; align=&quot;left&quot;&gt;&lt;font style=&quot;font-size: 15px;&quot;&gt;&lt;span style=&quot;white-space: pre;&quot;&gt;	&lt;/span&gt;-ls -l /usr/share/cctc&lt;/font&gt;&lt;/div&gt;&lt;div style=&quot;font-size: 15px;&quot; align=&quot;left&quot;&gt;&lt;font style=&quot;font-size: 15px;&quot;&gt;&lt;br&gt;&lt;/font&gt;&lt;/div&gt;" style="text;html=1;strokeColor=none;fillColor=none;align=left;verticalAlign=middle;whiteSpace=wrap;rounded=0;" vertex="1" parent="1">
          <mxGeometry x="-1290" y="-170" width="680" height="920" as="geometry" />
        </mxCell>
        <mxCell id="hG6LAnQAgxeCxiIPLAjW-36" style="edgeStyle=orthogonalEdgeStyle;rounded=0;orthogonalLoop=1;jettySize=auto;html=1;" edge="1" parent="1" source="hG6LAnQAgxeCxiIPLAjW-14">
          <mxGeometry relative="1" as="geometry">
            <mxPoint x="360" y="145" as="targetPoint" />
          </mxGeometry>
        </mxCell>
        <mxCell id="hG6LAnQAgxeCxiIPLAjW-37" value=".10" style="text;html=1;strokeColor=none;fillColor=none;align=center;verticalAlign=middle;whiteSpace=wrap;rounded=0;" vertex="1" parent="1">
          <mxGeometry x="135" y="115" width="50" height="30" as="geometry" />
        </mxCell>
        <mxCell id="hG6LAnQAgxeCxiIPLAjW-38" value="&lt;div&gt;10.3.0.0/24&lt;/div&gt;&lt;div&gt;.1-.254&lt;br&gt;&lt;/div&gt;" style="text;html=1;align=center;verticalAlign=middle;resizable=0;points=[];autosize=1;strokeColor=none;fillColor=none;" vertex="1" parent="1">
          <mxGeometry x="330" y="-70" width="80" height="40" as="geometry" />
        </mxCell>
        <mxCell id="hG6LAnQAgxeCxiIPLAjW-39" value="" style="rounded=0;whiteSpace=wrap;html=1;" vertex="1" parent="1">
          <mxGeometry x="360" y="-20" width="20" height="410" as="geometry" />
        </mxCell>
        <mxCell id="hG6LAnQAgxeCxiIPLAjW-42" value="10.3.0.200 dev eth0 lladdr fa:16:3e:05:ea:df STALE&lt;br&gt;10.3.0.1 dev eth0 lladdr fa:16:3e:22:cf:05 REACHABLE&lt;br&gt;10.3.0.27 dev eth0 lladdr fa:16:3e:54:2a:f9 STALE&lt;br&gt;10.3.0.202 dev eth0 lladdr fa:16:3e:ec:d8:a3 STALE&lt;br&gt;10.3.0.254 dev eth0 lladdr fa:16:3e:54:a2:2f REACHABLE&lt;br&gt;10.3.0.201 dev eth0 lladdr fa:16:3e:2b:ee:68 STALE" style="text;html=1;align=center;verticalAlign=middle;resizable=0;points=[];autosize=1;strokeColor=none;fillColor=none;" vertex="1" parent="1">
          <mxGeometry x="-155" y="-60" width="330" height="100" as="geometry" />
        </mxCell>
        <mxCell id="hG6LAnQAgxeCxiIPLAjW-44" value="&lt;div&gt;1p&lt;/div&gt;&lt;div&gt;21,80&lt;/div&gt;" style="whiteSpace=wrap;html=1;" vertex="1" parent="1">
          <mxGeometry x="410" y="190" width="80" height="55" as="geometry" />
        </mxCell>
        <mxCell id="hG6LAnQAgxeCxiIPLAjW-45" value="&lt;div&gt;27&lt;/div&gt;&lt;div&gt;p21,80&lt;br&gt;&lt;/div&gt;" style="whiteSpace=wrap;html=1;" vertex="1" parent="1">
          <mxGeometry x="410" y="270" width="80" height="50" as="geometry" />
        </mxCell>
        <mxCell id="hG6LAnQAgxeCxiIPLAjW-49" value="64 bytes from 10.3.0.1: icmp_seq=1 ttl=64 time=0.335 ms&lt;br&gt;64 bytes from 10.3.0.10: icmp_seq=1 ttl=64 time=0.019 ms&lt;br&gt;64 bytes from 10.3.0.27: icmp_seq=1 ttl=64 time=0.347 ms&lt;br&gt;64 bytes from 10.3.0.200: icmp_seq=1 ttl=64 time=0.844 ms&lt;br&gt;64 bytes from 10.3.0.201: icmp_seq=1 ttl=64 time=0.589 ms&lt;br&gt;64 bytes from 10.3.0.254: icmp_seq=1 ttl=64 time=0.755 ms&lt;br&gt;&lt;br&gt;" style="text;html=1;align=center;verticalAlign=middle;resizable=0;points=[];autosize=1;strokeColor=none;fillColor=none;" vertex="1" parent="1">
          <mxGeometry x="-155" y="-180" width="340" height="110" as="geometry" />
        </mxCell>
        <mxCell id="hG6LAnQAgxeCxiIPLAjW-52" value="" style="rounded=0;whiteSpace=wrap;html=1;" vertex="1" parent="1">
          <mxGeometry x="360" y="420" width="20" height="410" as="geometry" />
        </mxCell>
        <mxCell id="hG6LAnQAgxeCxiIPLAjW-53" style="edgeStyle=orthogonalEdgeStyle;rounded=0;orthogonalLoop=1;jettySize=auto;html=1;" edge="1" parent="1">
          <mxGeometry relative="1" as="geometry">
            <mxPoint x="360" y="585" as="targetPoint" />
            <mxPoint x="140" y="585" as="sourcePoint" />
          </mxGeometry>
        </mxCell>
        <mxCell id="hG6LAnQAgxeCxiIPLAjW-55" value="&lt;div&gt;.2&lt;/div&gt;&lt;div&gt;21, 80&lt;/div&gt;" style="whiteSpace=wrap;html=1;fontSize=15;" vertex="1" parent="1">
          <mxGeometry x="410" y="420" width="120" height="60" as="geometry" />
        </mxCell>
        <mxCell id="hG6LAnQAgxeCxiIPLAjW-56" value="&lt;div&gt;tunnels-training-atlantica-pivot&lt;/div&gt;&lt;div&gt;10.2.0.3 /24&lt;br&gt;&lt;/div&gt;&lt;div&gt;22, 23&lt;/div&gt;&lt;div&gt;WS + tcpdump&lt;br&gt;&lt;/div&gt;&lt;div&gt;&lt;br&gt;&lt;/div&gt;" style="whiteSpace=wrap;html=1;fontSize=15;" vertex="1" parent="1">
          <mxGeometry x="410" y="530" width="270" height="150" as="geometry" />
        </mxCell>
        <mxCell id="hG6LAnQAgxeCxiIPLAjW-60" value="&lt;div&gt;.1&lt;/div&gt;" style="text;html=1;align=center;verticalAlign=middle;resizable=0;points=[];autosize=1;strokeColor=none;fillColor=none;fontSize=15;" vertex="1" parent="1">
          <mxGeometry x="130" y="555" width="40" height="30" as="geometry" />
        </mxCell>
        <mxCell id="hG6LAnQAgxeCxiIPLAjW-61" value="&lt;div&gt;who is localhost?&lt;/div&gt;&lt;div&gt;-L = where you are connecting to&lt;/div&gt;&lt;div&gt;-R is where you ran the command&lt;/div&gt;&lt;div&gt;in connection part of a command:&lt;/div&gt;&lt;div&gt;lclhost means where you ran command&lt;br&gt;&lt;/div&gt;" style="text;html=1;align=center;verticalAlign=middle;resizable=0;points=[];autosize=1;strokeColor=none;fillColor=none;fontSize=15;" vertex="1" parent="1">
          <mxGeometry x="-600" y="670" width="280" height="100" as="geometry" />
        </mxCell>
        <mxCell id="hG6LAnQAgxeCxiIPLAjW-64" value=".201" style="whiteSpace=wrap;html=1;fontSize=15;" vertex="1" parent="1">
          <mxGeometry x="400" y="720" width="120" height="60" as="geometry" />
        </mxCell>
        <mxCell id="hG6LAnQAgxeCxiIPLAjW-65" value=".202" style="whiteSpace=wrap;html=1;fontSize=15;" vertex="1" parent="1">
          <mxGeometry x="540" y="720" width="120" height="60" as="geometry" />
        </mxCell>
        <mxCell id="hG6LAnQAgxeCxiIPLAjW-66" value=".254" style="whiteSpace=wrap;html=1;fontSize=15;" vertex="1" parent="1">
          <mxGeometry x="690" y="720" width="120" height="60" as="geometry" />
        </mxCell>
        <mxCell id="hG6LAnQAgxeCxiIPLAjW-68" value="&lt;div&gt;/usr/share/cctc/hint.txt: &lt;br&gt;&lt;/div&gt;&lt;div&gt;You have accessed the &lt;br/&gt;Atlantica government server. There is nothing interesting on this &lt;br/&gt;server, however, it used to have access to the 10.4.0.0/24 and &lt;br/&gt;10.5.0.0/24 networks until the admins shut it down. Try to access those &lt;br/&gt;networks through another way.&lt;br&gt;&lt;br&gt;&lt;br&gt;&lt;/div&gt;" style="rounded=0;whiteSpace=wrap;html=1;fontSize=15;" vertex="1" parent="1">
          <mxGeometry x="700" y="530" width="840" height="155" as="geometry" />
        </mxCell>
        <mxCell id="hG6LAnQAgxeCxiIPLAjW-69" value="" style="endArrow=classic;html=1;rounded=0;fontSize=15;exitX=1;exitY=0.5;exitDx=0;exitDy=0;entryX=0;entryY=1;entryDx=0;entryDy=0;" edge="1" parent="1" source="hG6LAnQAgxeCxiIPLAjW-13" target="hG6LAnQAgxeCxiIPLAjW-74">
          <mxGeometry width="50" height="50" relative="1" as="geometry">
            <mxPoint x="210" y="50" as="sourcePoint" />
            <mxPoint x="410" y="-200" as="targetPoint" />
          </mxGeometry>
        </mxCell>
        <mxCell id="hG6LAnQAgxeCxiIPLAjW-74" value="&lt;div&gt;10.4.0.1&lt;/div&gt;&lt;div&gt;/24&lt;/div&gt;&lt;div&gt;tunnels-training-baja-republic-pivot&lt;br&gt;22 ssh&lt;/div&gt;&lt;div&gt;tcpdump+WS&lt;br&gt;&lt;/div&gt;" style="whiteSpace=wrap;html=1;fontSize=15;" vertex="1" parent="1">
          <mxGeometry x="390" y="-500" width="310" height="240" as="geometry" />
        </mxCell>
        <mxCell id="hG6LAnQAgxeCxiIPLAjW-75" value="" style="endArrow=classic;html=1;rounded=0;fontSize=15;exitX=1;exitY=0;exitDx=0;exitDy=0;" edge="1" parent="1" source="hG6LAnQAgxeCxiIPLAjW-74">
          <mxGeometry width="50" height="50" relative="1" as="geometry">
            <mxPoint x="730" y="-540" as="sourcePoint" />
            <mxPoint x="890" y="-750" as="targetPoint" />
          </mxGeometry>
        </mxCell>
        <mxCell id="hG6LAnQAgxeCxiIPLAjW-76" value="&lt;div&gt;Mojave server&lt;br&gt;&lt;/div&gt;&lt;div&gt;10.5.0.1&lt;/div&gt;&lt;div&gt;21, 80&lt;/div&gt;&lt;div&gt;&lt;br&gt;&lt;/div&gt;" style="whiteSpace=wrap;html=1;fontSize=15;" vertex="1" parent="1">
          <mxGeometry x="890" y="-840" width="160" height="90" as="geometry" />
        </mxCell>
        <mxCell id="hG6LAnQAgxeCxiIPLAjW-77" value="&lt;div&gt;UNK&lt;/div&gt;&lt;div&gt;10.5.0.57&lt;/div&gt;&lt;div&gt;21, 80&lt;/div&gt;&lt;div&gt;&lt;br&gt;&lt;/div&gt;" style="whiteSpace=wrap;html=1;fontSize=15;" vertex="1" parent="1">
          <mxGeometry x="1100" y="-855" width="160" height="115" as="geometry" />
        </mxCell>
      </root>
    </mxGraphModel>
  </diagram>
  <diagram id="0oSf8pZLkEVaa12HOu5k" name="Page-2">
    <mxGraphModel dx="2242" dy="1198" grid="1" gridSize="10" guides="1" tooltips="1" connect="1" arrows="1" fold="1" page="0" pageScale="1" pageWidth="850" pageHeight="1100" math="0" shadow="0">
      <root>
        <mxCell id="0" />
        <mxCell id="1" parent="0" />
        <mxCell id="l-BnvQx-e9YQucAC1BkO-1" value="&lt;div style=&quot;font-size: 15px;&quot; align=&quot;left&quot;&gt;&lt;font style=&quot;font-size: 15px;&quot;&gt;Net Recon Methodology:&lt;/font&gt;&lt;/div&gt;&lt;div style=&quot;font-size: 15px;&quot; align=&quot;left&quot;&gt;&lt;font style=&quot;font-size: 15px;&quot;&gt;1. host discovery&lt;/font&gt;&lt;/div&gt;&lt;div style=&quot;font-size: 15px;&quot; align=&quot;left&quot;&gt;&lt;font style=&quot;font-size: 15px;&quot;&gt;&lt;span style=&quot;white-space: pre;&quot;&gt;	&lt;/span&gt;-nmap &amp;lt;ip/subnet&amp;gt; -T4 -Pn -p 21-23,80 --min-rate 8000 2&amp;gt;/dev/null | egrep &quot;scan|open&quot;&lt;br&gt;&lt;/font&gt;&lt;/div&gt;&lt;div style=&quot;font-size: 15px;&quot; align=&quot;left&quot;&gt;&lt;font style=&quot;font-size: 15px;&quot;&gt;&lt;span style=&quot;white-space: pre;&quot;&gt;	&lt;/span&gt;-nc -nvzw1 &amp;lt;ip&amp;gt; 21-23 80 2&amp;gt;$1 | egrep &quot;[Oo]pen|[Rr]efused&quot; &lt;br&gt;&lt;/font&gt;&lt;/div&gt;&lt;div style=&quot;font-size: 15px;&quot; align=&quot;left&quot;&gt;&lt;font style=&quot;font-size: 15px;&quot;&gt;&lt;span style=&quot;white-space: pre;&quot;&gt;	&lt;/span&gt;&lt;span style=&quot;white-space: pre;&quot;&gt;	&lt;/span&gt;can be prededed with;&lt;/font&gt;&lt;/div&gt;&lt;div style=&quot;font-size: 15px;&quot; align=&quot;left&quot;&gt;&lt;font style=&quot;font-size: 15px;&quot;&gt;&lt;span style=&quot;white-space: pre;&quot;&gt;	&lt;/span&gt;&lt;span style=&quot;white-space: pre;&quot;&gt;	&lt;/span&gt;for i in {1..254}; do &amp;lt;nc cmd here&amp;gt;&lt;br&gt;&lt;/font&gt;&lt;/div&gt;&lt;div style=&quot;font-size: 15px;&quot; align=&quot;left&quot;&gt;&lt;font style=&quot;font-size: 15px;&quot;&gt;&lt;span style=&quot;white-space: pre;&quot;&gt;	&lt;/span&gt;-ping sweep (perform locally)&lt;br&gt;&lt;/font&gt;&lt;/div&gt;&lt;div style=&quot;font-size: 15px;&quot; align=&quot;left&quot;&gt;&lt;font style=&quot;font-size: 15px;&quot;&gt;&lt;span style=&quot;white-space: pre;&quot;&gt;	&lt;/span&gt;&lt;span style=&quot;white-space: pre;&quot;&gt;	&lt;/span&gt;for i in {1..254}; do (ping -c 1 -W 1 xxx.xxx.xxx.$i 2&amp;gt;/dev/null | egrep &quot;bytes from&quot; &amp;amp;); done&lt;/font&gt;&lt;/div&gt;&lt;div style=&quot;font-size: 15px;&quot; align=&quot;left&quot;&gt;&lt;font style=&quot;font-size: 15px;&quot;&gt;&lt;span style=&quot;white-space: pre;&quot;&gt;	&lt;/span&gt;&lt;span style=&quot;white-space: pre;&quot;&gt;	&lt;/span&gt;very fast&lt;br&gt;&lt;/font&gt;&lt;/div&gt;&lt;div style=&quot;font-size: 15px;&quot; align=&quot;left&quot;&gt;&lt;font style=&quot;font-size: 15px;&quot;&gt;&lt;span style=&quot;white-space: pre;&quot;&gt;	&lt;/span&gt;-./scan.sh&lt;br&gt;&lt;/font&gt;&lt;/div&gt;&lt;div style=&quot;font-size: 15px;&quot; align=&quot;left&quot;&gt;&lt;font style=&quot;font-size: 15px;&quot;&gt;2. service/port discovery&lt;/font&gt;&lt;/div&gt;&lt;div style=&quot;font-size: 15px;&quot; align=&quot;left&quot;&gt;&lt;font style=&quot;font-size: 15px;&quot;&gt;&lt;span style=&quot;white-space: pre;&quot;&gt;	&lt;/span&gt;-nmap (cheat sheet, -sS, -sT)&lt;br&gt;&lt;/font&gt;&lt;/div&gt;&lt;div style=&quot;font-size: 15px;&quot; align=&quot;left&quot;&gt;&lt;font style=&quot;font-size: 15px;&quot;&gt;&lt;span style=&quot;white-space: pre;&quot;&gt;	&lt;/span&gt;-nc&lt;/font&gt;&lt;/div&gt;&lt;div style=&quot;font-size: 15px;&quot; align=&quot;left&quot;&gt;&lt;font style=&quot;font-size: 15px;&quot;&gt;&lt;span style=&quot;white-space: pre;&quot;&gt;	&lt;/span&gt;-scan.sh&lt;/font&gt;&lt;/div&gt;&lt;div style=&quot;font-size: 15px;&quot; align=&quot;left&quot;&gt;&lt;font style=&quot;font-size: 15px;&quot;&gt;3. service/port validation&lt;/font&gt;&lt;/div&gt;&lt;div style=&quot;font-size: 15px;&quot; align=&quot;left&quot;&gt;&lt;font style=&quot;font-size: 15px;&quot;&gt;&lt;span style=&quot;white-space: pre;&quot;&gt;	&lt;/span&gt;-nc banner grabbing&lt;/font&gt;&lt;/div&gt;&lt;div style=&quot;font-size: 15px;&quot; align=&quot;left&quot;&gt;&lt;font style=&quot;font-size: 15px;&quot;&gt;&lt;span style=&quot;white-space: pre;&quot;&gt;	&lt;/span&gt;&lt;span style=&quot;white-space: pre;&quot;&gt;	&lt;/span&gt;nc &amp;lt;ip&amp;gt; &amp;lt;port&amp;gt;&lt;/font&gt;&lt;/div&gt;&lt;div style=&quot;font-size: 15px;&quot; align=&quot;left&quot;&gt;&lt;font style=&quot;font-size: 15px;&quot;&gt;4. follow on actions based on ports found&lt;/font&gt;&lt;/div&gt;&lt;div style=&quot;font-size: 15px;&quot; align=&quot;left&quot;&gt;&lt;font style=&quot;font-size: 15px;&quot;&gt;&lt;span style=&quot;white-space: pre;&quot;&gt;	&lt;/span&gt;-if 21 or 80, wget -r IP || wget -r ftp://IP&lt;/font&gt;&lt;/div&gt;&lt;div style=&quot;font-size: 15px;&quot; align=&quot;left&quot;&gt;&lt;font style=&quot;font-size: 15px;&quot;&gt;&lt;span style=&quot;white-space: pre;&quot;&gt;	&lt;/span&gt;-if 22 or 23, connect and perform passive recon&lt;br&gt;&lt;/font&gt;&lt;/div&gt;&lt;div style=&quot;font-size: 15px;&quot; align=&quot;left&quot;&gt;&lt;font style=&quot;font-size: 15px;&quot;&gt;Scan methodology:&lt;/font&gt;&lt;/div&gt;&lt;div style=&quot;font-size: 15px;&quot; align=&quot;left&quot;&gt;&lt;font style=&quot;font-size: 15px;&quot;&gt;&lt;span style=&quot;white-space: pre;&quot;&gt;	&lt;/span&gt;-quick scan ports 21-23,80&lt;/font&gt;&lt;/div&gt;&lt;div style=&quot;font-size: 15px;&quot; align=&quot;left&quot;&gt;&lt;font style=&quot;font-size: 15px;&quot;&gt;&lt;span style=&quot;white-space: pre;&quot;&gt;	&lt;/span&gt;-0-1023 &lt;br&gt;&lt;/font&gt;&lt;/div&gt;&lt;div style=&quot;font-size: 15px;&quot; align=&quot;left&quot;&gt;&lt;font style=&quot;font-size: 15px;&quot;&gt;&lt;span style=&quot;white-space: pre;&quot;&gt;	&lt;/span&gt;-chunks of 2000&lt;/font&gt;&lt;/div&gt;&lt;div style=&quot;font-size: 15px;&quot; align=&quot;left&quot;&gt;&lt;font style=&quot;font-size: 15px;&quot;&gt;&lt;span style=&quot;white-space: pre;&quot;&gt;	&lt;/span&gt;-first 10k&lt;/font&gt;&lt;/div&gt;&lt;div style=&quot;font-size: 15px;&quot; align=&quot;left&quot;&gt;&lt;font style=&quot;font-size: 15px;&quot;&gt;&lt;span style=&quot;white-space: pre;&quot;&gt;	&lt;/span&gt;-Hail Mary 65335 (-p-)&lt;br&gt;&lt;/font&gt;&lt;/div&gt;&lt;div style=&quot;font-size: 15px;&quot; align=&quot;left&quot;&gt;&lt;font style=&quot;font-size: 15px;&quot;&gt;Passive recon methodology:&lt;/font&gt;&lt;/div&gt;&lt;div style=&quot;font-size: 15px;&quot; align=&quot;left&quot;&gt;&lt;font style=&quot;font-size: 15px;&quot;&gt;&lt;span style=&quot;white-space: pre;&quot;&gt;	&lt;/span&gt;-netstat -nltp / anob&lt;br&gt;&lt;/font&gt;&lt;/div&gt;&lt;div style=&quot;font-size: 15px;&quot; align=&quot;left&quot;&gt;&lt;font style=&quot;font-size: 15px;&quot;&gt;&lt;span style=&quot;white-space: pre;&quot;&gt;	&lt;/span&gt;-ip a&lt;/font&gt;&lt;/div&gt;&lt;div style=&quot;font-size: 15px;&quot; align=&quot;left&quot;&gt;&lt;font style=&quot;font-size: 15px;&quot;&gt;&lt;span style=&quot;white-space: pre;&quot;&gt;	&lt;/span&gt;-sudo route&lt;/font&gt;&lt;/div&gt;&lt;div style=&quot;font-size: 15px;&quot; align=&quot;left&quot;&gt;&lt;font style=&quot;font-size: 15px;&quot;&gt;&lt;span style=&quot;white-space: pre;&quot;&gt;	&lt;/span&gt;-arp -a || ip neigh&lt;/font&gt;&lt;/div&gt;&lt;div style=&quot;font-size: 15px;&quot; align=&quot;left&quot;&gt;&lt;font style=&quot;font-size: 15px;&quot;&gt;&lt;span style=&quot;white-space: pre;&quot;&gt;	&lt;/span&gt;&lt;span style=&quot;white-space: pre;&quot;&gt;	&lt;/span&gt;stale or other&lt;br&gt;&lt;/font&gt;&lt;/div&gt;&lt;div style=&quot;font-size: 15px;&quot; align=&quot;left&quot;&gt;&lt;font style=&quot;font-size: 15px;&quot;&gt;&lt;span style=&quot;white-space: pre;&quot;&gt;	&lt;/span&gt;-find&lt;/font&gt;&lt;/div&gt;&lt;div style=&quot;font-size: 15px;&quot; align=&quot;left&quot;&gt;&lt;font style=&quot;font-size: 15px;&quot;&gt;&lt;span style=&quot;white-space: pre;&quot;&gt;	&lt;/span&gt;&lt;span style=&quot;white-space: pre;&quot;&gt;	&lt;/span&gt;find / -type f -iname &quot;*.pcap&quot; 2&amp;gt;/dev/null&lt;/font&gt;&lt;/div&gt;&lt;div style=&quot;font-size: 15px;&quot; align=&quot;left&quot;&gt;&lt;font style=&quot;font-size: 15px;&quot;&gt;&lt;span style=&quot;white-space: pre;&quot;&gt;	&lt;/span&gt;-ls -l /usr/share/cctc&lt;/font&gt;&lt;/div&gt;&lt;div style=&quot;font-size: 15px;&quot; align=&quot;left&quot;&gt;&lt;font style=&quot;font-size: 15px;&quot;&gt;&lt;br&gt;&lt;/font&gt;&lt;/div&gt;" style="text;html=1;strokeColor=none;fillColor=none;align=left;verticalAlign=middle;whiteSpace=wrap;rounded=0;" vertex="1" parent="1">
          <mxGeometry x="-680" y="-170" width="680" height="920" as="geometry" />
        </mxCell>
        <mxCell id="Lfe3x2MiMawYeN7OV0tQ-1" value="internet-host-23" style="swimlane;fontStyle=0;childLayout=stackLayout;horizontal=1;startSize=30;horizontalStack=0;resizeParent=1;resizeParentMax=0;resizeLast=0;collapsible=1;marginBottom=0;" vertex="1" parent="1">
          <mxGeometry x="200" y="160" width="240" height="270" as="geometry" />
        </mxCell>
        <mxCell id="Lfe3x2MiMawYeN7OV0tQ-2" value="10.50.35.18" style="text;strokeColor=none;fillColor=none;align=left;verticalAlign=middle;spacingLeft=4;spacingRight=4;overflow=hidden;points=[[0,0.5],[1,0.5]];portConstraint=eastwest;rotatable=0;" vertex="1" parent="Lfe3x2MiMawYeN7OV0tQ-1">
          <mxGeometry y="30" width="240" height="30" as="geometry" />
        </mxCell>
        <mxCell id="Lfe3x2MiMawYeN7OV0tQ-3" value="10.10.0.40" style="text;strokeColor=none;fillColor=none;align=left;verticalAlign=middle;spacingLeft=4;spacingRight=4;overflow=hidden;points=[[0,0.5],[1,0.5]];portConstraint=eastwest;rotatable=0;" vertex="1" parent="Lfe3x2MiMawYeN7OV0tQ-1">
          <mxGeometry y="60" width="240" height="30" as="geometry" />
        </mxCell>
        <mxCell id="Lfe3x2MiMawYeN7OV0tQ-4" value="ports 32300-3299" style="text;strokeColor=none;fillColor=none;align=left;verticalAlign=middle;spacingLeft=4;spacingRight=4;overflow=hidden;points=[[0,0.5],[1,0.5]];portConstraint=eastwest;rotatable=0;" vertex="1" parent="Lfe3x2MiMawYeN7OV0tQ-1">
          <mxGeometry y="90" width="240" height="30" as="geometry" />
        </mxCell>
        <mxCell id="Lfe3x2MiMawYeN7OV0tQ-5" value="ports in use:" style="text;strokeColor=none;fillColor=none;align=left;verticalAlign=middle;spacingLeft=4;spacingRight=4;overflow=hidden;points=[[0,0.5],[1,0.5]];portConstraint=eastwest;rotatable=0;" vertex="1" parent="Lfe3x2MiMawYeN7OV0tQ-1">
          <mxGeometry y="120" width="240" height="30" as="geometry" />
        </mxCell>
        <mxCell id="Lfe3x2MiMawYeN7OV0tQ-6" value="x" style="text;strokeColor=none;fillColor=none;align=left;verticalAlign=middle;spacingLeft=4;spacingRight=4;overflow=hidden;points=[[0,0.5],[1,0.5]];portConstraint=eastwest;rotatable=0;" vertex="1" parent="Lfe3x2MiMawYeN7OV0tQ-1">
          <mxGeometry y="150" width="240" height="30" as="geometry" />
        </mxCell>
        <mxCell id="Lfe3x2MiMawYeN7OV0tQ-7" value="y" style="text;strokeColor=none;fillColor=none;align=left;verticalAlign=middle;spacingLeft=4;spacingRight=4;overflow=hidden;points=[[0,0.5],[1,0.5]];portConstraint=eastwest;rotatable=0;" vertex="1" parent="Lfe3x2MiMawYeN7OV0tQ-1">
          <mxGeometry y="180" width="240" height="30" as="geometry" />
        </mxCell>
        <mxCell id="Lfe3x2MiMawYeN7OV0tQ-8" value="z" style="text;strokeColor=none;fillColor=none;align=left;verticalAlign=middle;spacingLeft=4;spacingRight=4;overflow=hidden;points=[[0,0.5],[1,0.5]];portConstraint=eastwest;rotatable=0;" vertex="1" parent="Lfe3x2MiMawYeN7OV0tQ-1">
          <mxGeometry y="210" width="240" height="30" as="geometry" />
        </mxCell>
        <mxCell id="Lfe3x2MiMawYeN7OV0tQ-9" value="a" style="text;strokeColor=none;fillColor=none;align=left;verticalAlign=middle;spacingLeft=4;spacingRight=4;overflow=hidden;points=[[0,0.5],[1,0.5]];portConstraint=eastwest;rotatable=0;" vertex="1" parent="Lfe3x2MiMawYeN7OV0tQ-1">
          <mxGeometry y="240" width="240" height="30" as="geometry" />
        </mxCell>
        <mxCell id="Lfe3x2MiMawYeN7OV0tQ-10" value="data-collection-net-ssh-01" style="swimlane;fontStyle=0;childLayout=stackLayout;horizontal=1;startSize=30;horizontalStack=0;resizeParent=1;resizeParentMax=0;resizeLast=0;collapsible=1;marginBottom=0;" vertex="1" parent="1">
          <mxGeometry x="640" y="200" width="240" height="120" as="geometry" />
        </mxCell>
        <mxCell id="Lfe3x2MiMawYeN7OV0tQ-11" value="float: 10.50.25.34" style="text;strokeColor=none;fillColor=none;align=left;verticalAlign=middle;spacingLeft=4;spacingRight=4;overflow=hidden;points=[[0,0.5],[1,0.5]];portConstraint=eastwest;rotatable=0;" vertex="1" parent="Lfe3x2MiMawYeN7OV0tQ-10">
          <mxGeometry y="30" width="240" height="30" as="geometry" />
        </mxCell>
        <mxCell id="Lfe3x2MiMawYeN7OV0tQ-19" value="192.168.0.10 /24" style="text;strokeColor=none;fillColor=none;align=left;verticalAlign=middle;spacingLeft=4;spacingRight=4;overflow=hidden;points=[[0,0.5],[1,0.5]];portConstraint=eastwest;rotatable=0;" vertex="1" parent="Lfe3x2MiMawYeN7OV0tQ-10">
          <mxGeometry y="60" width="240" height="30" as="geometry" />
        </mxCell>
        <mxCell id="Lfe3x2MiMawYeN7OV0tQ-20" value="22,23,80" style="text;strokeColor=none;fillColor=none;align=left;verticalAlign=middle;spacingLeft=4;spacingRight=4;overflow=hidden;points=[[0,0.5],[1,0.5]];portConstraint=eastwest;rotatable=0;" vertex="1" parent="Lfe3x2MiMawYeN7OV0tQ-10">
          <mxGeometry y="90" width="240" height="30" as="geometry" />
        </mxCell>
        <mxCell id="i6X6u6iLM--hcefiZj6G-1" style="edgeStyle=orthogonalEdgeStyle;rounded=0;orthogonalLoop=1;jettySize=auto;html=1;entryX=0;entryY=0.5;entryDx=0;entryDy=0;fontSize=15;" edge="1" parent="1" source="Lfe3x2MiMawYeN7OV0tQ-3" target="Lfe3x2MiMawYeN7OV0tQ-10">
          <mxGeometry relative="1" as="geometry" />
        </mxCell>
        <mxCell id="i6X6u6iLM--hcefiZj6G-2" value="" style="endArrow=none;dashed=1;html=1;rounded=0;fontSize=15;" edge="1" parent="1">
          <mxGeometry width="50" height="50" relative="1" as="geometry">
            <mxPoint x="560" y="520" as="sourcePoint" />
            <mxPoint x="560" y="40" as="targetPoint" />
          </mxGeometry>
        </mxCell>
        <mxCell id="i6X6u6iLM--hcefiZj6G-4" value="&lt;div&gt;ssh-04&lt;br&gt;&lt;/div&gt;&lt;div&gt;.40&lt;/div&gt;&lt;div&gt;80&lt;/div&gt;&lt;div&gt;ssh on 5555&lt;/div&gt;&lt;div&gt;many other open ports in 30k+ range&lt;/div&gt;&lt;div&gt;&lt;br&gt;&lt;/div&gt;" style="whiteSpace=wrap;html=1;fontSize=15;" vertex="1" parent="1">
          <mxGeometry x="960" y="130" width="420" height="150" as="geometry" />
        </mxCell>
        <mxCell id="i6X6u6iLM--hcefiZj6G-10" value="&lt;div&gt;.30&lt;/div&gt;&lt;div&gt;80,4444&lt;/div&gt;&lt;div&gt;flag on 4444&lt;br&gt;&lt;/div&gt;" style="whiteSpace=wrap;html=1;fontSize=15;" vertex="1" parent="1">
          <mxGeometry x="960" y="40" width="120" height="60" as="geometry" />
        </mxCell>
        <mxCell id="i6X6u6iLM--hcefiZj6G-18" value="data-collection-net-ssh-02" style="swimlane;fontStyle=0;childLayout=stackLayout;horizontal=1;startSize=30;horizontalStack=0;resizeParent=1;resizeParentMax=0;resizeLast=0;collapsible=1;marginBottom=0;" vertex="1" parent="1">
          <mxGeometry x="960" y="-80" width="240" height="90" as="geometry" />
        </mxCell>
        <mxCell id="i6X6u6iLM--hcefiZj6G-20" value="192.168.0.20 /24" style="text;strokeColor=none;fillColor=none;align=left;verticalAlign=middle;spacingLeft=4;spacingRight=4;overflow=hidden;points=[[0,0.5],[1,0.5]];portConstraint=eastwest;rotatable=0;" vertex="1" parent="i6X6u6iLM--hcefiZj6G-18">
          <mxGeometry y="30" width="240" height="30" as="geometry" />
        </mxCell>
        <mxCell id="i6X6u6iLM--hcefiZj6G-21" value="21, 80, 1111, 2222, 3333" style="text;strokeColor=none;fillColor=none;align=left;verticalAlign=middle;spacingLeft=4;spacingRight=4;overflow=hidden;points=[[0,0.5],[1,0.5]];portConstraint=eastwest;rotatable=0;" vertex="1" parent="i6X6u6iLM--hcefiZj6G-18">
          <mxGeometry y="60" width="240" height="30" as="geometry" />
        </mxCell>
        <mxCell id="i6X6u6iLM--hcefiZj6G-22" value="&lt;div&gt;.50&lt;/div&gt;&lt;div&gt;21, 80&lt;/div&gt;&lt;div&gt;no access so far&lt;/div&gt;" style="whiteSpace=wrap;html=1;fontSize=15;" vertex="1" parent="1">
          <mxGeometry x="1240" y="-140" width="120" height="60" as="geometry" />
        </mxCell>
        <mxCell id="i6X6u6iLM--hcefiZj6G-26" value="" style="endArrow=none;dashed=1;html=1;dashPattern=1 3;strokeWidth=2;rounded=0;fontSize=15;exitX=1;exitY=1;exitDx=0;exitDy=0;" edge="1" parent="1" source="i6X6u6iLM--hcefiZj6G-18">
          <mxGeometry width="50" height="50" relative="1" as="geometry">
            <mxPoint x="1220" y="80" as="sourcePoint" />
            <mxPoint x="1560" y="-40" as="targetPoint" />
          </mxGeometry>
        </mxCell>
        <mxCell id="cud_i4i51PphYdmpCoqy-1" value="&lt;div&gt;32399 ---&amp;gt; ssh-01&lt;/div&gt;&lt;div&gt;32301 ---&amp;gt; ssh-02&lt;br&gt;&lt;/div&gt;&lt;div&gt;32302 ---&amp;gt; ssh-04&lt;br&gt;&lt;/div&gt;&lt;div&gt;32303 ---&amp;gt; ssh-04:23&lt;br&gt;&lt;/div&gt;&lt;div&gt;ssh-04/32304 &amp;gt; ssh-06&lt;br&gt;&lt;/div&gt;&lt;div&gt;32305 --&amp;gt;lh32302 -&amp;gt; ssh-06:32304&lt;br&gt;&lt;/div&gt;&lt;div&gt;32306 --&amp;gt; ssh-09&lt;/div&gt;&lt;div&gt;&lt;br&gt;&lt;/div&gt;&lt;div&gt;&lt;br&gt;&lt;/div&gt;" style="text;html=1;align=center;verticalAlign=middle;resizable=0;points=[];autosize=1;strokeColor=none;fillColor=none;fontSize=15;" vertex="1" parent="1">
          <mxGeometry x="285" y="-70" width="250" height="180" as="geometry" />
        </mxCell>
        <mxCell id="cud_i4i51PphYdmpCoqy-2" value="&lt;div&gt;ssh-06&lt;br&gt;&lt;/div&gt;&lt;div&gt;172.16.0.60&lt;br&gt;&lt;/div&gt;21, 22, 23, 80" style="whiteSpace=wrap;html=1;fontSize=15;" vertex="1" parent="1">
          <mxGeometry x="1580" y="100" width="370" height="110" as="geometry" />
        </mxCell>
        <mxCell id="cud_i4i51PphYdmpCoqy-3" value="&lt;div&gt;70&lt;/div&gt;&lt;div&gt;closed&lt;br&gt;&lt;/div&gt;" style="whiteSpace=wrap;html=1;fontSize=15;" vertex="1" parent="1">
          <mxGeometry x="2030" y="90" width="120" height="60" as="geometry" />
        </mxCell>
        <mxCell id="cud_i4i51PphYdmpCoqy-4" value="&lt;div&gt;80&lt;/div&gt;&lt;div&gt;80&lt;br&gt;&lt;/div&gt;" style="whiteSpace=wrap;html=1;fontSize=15;" vertex="1" parent="1">
          <mxGeometry x="2040" y="190" width="120" height="60" as="geometry" />
        </mxCell>
        <mxCell id="cud_i4i51PphYdmpCoqy-18" style="edgeStyle=orthogonalEdgeStyle;rounded=0;orthogonalLoop=1;jettySize=auto;html=1;entryX=0;entryY=0;entryDx=0;entryDy=0;fontSize=15;" edge="1" parent="1" source="cud_i4i51PphYdmpCoqy-5" target="cud_i4i51PphYdmpCoqy-16">
          <mxGeometry relative="1" as="geometry" />
        </mxCell>
        <mxCell id="cud_i4i51PphYdmpCoqy-5" value="&lt;div&gt;90&lt;/div&gt;&lt;div&gt;21,80,2222&lt;br&gt;&lt;/div&gt;" style="whiteSpace=wrap;html=1;fontSize=15;" vertex="1" parent="1">
          <mxGeometry x="2020" y="280" width="120" height="60" as="geometry" />
        </mxCell>
        <mxCell id="cud_i4i51PphYdmpCoqy-15" value="Nmap scan report for 172.16.0.60&lt;br&gt;Host is up (0.0061s latency).&lt;br&gt;&lt;br&gt;PORT&amp;nbsp;&amp;nbsp; STATE SERVICE&lt;br&gt;21/tcp open&amp;nbsp; ftp&lt;br&gt;22/tcp open&amp;nbsp; ssh&lt;br&gt;23/tcp open&amp;nbsp; telnet&lt;br&gt;80/tcp open&amp;nbsp; http&lt;br&gt;&lt;br&gt;Nmap scan report for 172.16.0.70&lt;br&gt;Host is up (10s latency).&lt;br&gt;&lt;br&gt;PORT&amp;nbsp;&amp;nbsp; STATE&amp;nbsp; SERVICE&lt;br&gt;21/tcp closed ftp&lt;br&gt;22/tcp closed ssh&lt;br&gt;23/tcp closed telnet&lt;br&gt;80/tcp closed http&lt;br&gt;&lt;br&gt;Nmap scan report for 172.16.0.80&lt;br&gt;Host is up (10s latency).&lt;br&gt;&lt;br&gt;PORT&amp;nbsp;&amp;nbsp; STATE&amp;nbsp; SERVICE&lt;br&gt;21/tcp closed ftp&lt;br&gt;22/tcp closed ssh&lt;br&gt;23/tcp closed telnet&lt;br&gt;80/tcp open&amp;nbsp;&amp;nbsp; http&lt;br&gt;&lt;br&gt;Nmap scan report for 172.16.0.90&lt;br&gt;Host is up (0.0085s latency).&lt;br&gt;&lt;br&gt;PORT&amp;nbsp;&amp;nbsp; STATE&amp;nbsp; SERVICE&lt;br&gt;21/tcp open&amp;nbsp;&amp;nbsp; ftp&lt;br&gt;22/tcp closed ssh&lt;br&gt;23/tcp closed telnet&lt;br&gt;80/tcp open&amp;nbsp;&amp;nbsp; http&lt;br&gt;" style="text;html=1;align=center;verticalAlign=middle;resizable=0;points=[];autosize=1;strokeColor=none;fillColor=none;fontSize=15;" vertex="1" parent="1">
          <mxGeometry x="2235" y="-280" width="250" height="640" as="geometry" />
        </mxCell>
        <mxCell id="cud_i4i51PphYdmpCoqy-16" value="&lt;div&gt;100&lt;/div&gt;&lt;div&gt;21, 23, 80&lt;br&gt;&lt;/div&gt;" style="whiteSpace=wrap;html=1;fontSize=15;" vertex="1" parent="1">
          <mxGeometry x="2220" y="430" width="120" height="60" as="geometry" />
        </mxCell>
        <mxCell id="cud_i4i51PphYdmpCoqy-17" value="PORT&amp;nbsp;&amp;nbsp; STATE&amp;nbsp; SERVICE&lt;br&gt;21/tcp open&amp;nbsp;&amp;nbsp; ftp&lt;br&gt;22/tcp closed ssh&lt;br&gt;23/tcp open&amp;nbsp;&amp;nbsp; telnet&lt;br&gt;80/tcp open&amp;nbsp;&amp;nbsp; http&lt;br&gt;" style="text;html=1;align=center;verticalAlign=middle;resizable=0;points=[];autosize=1;strokeColor=none;fillColor=none;fontSize=15;" vertex="1" parent="1">
          <mxGeometry x="2700" y="300" width="200" height="100" as="geometry" />
        </mxCell>
      </root>
    </mxGraphModel>
  </diagram>
  <diagram id="0VLLTM6ZnNe_-rATLkkm" name="Page-3">
    <mxGraphModel dx="1842" dy="798" grid="1" gridSize="10" guides="1" tooltips="1" connect="1" arrows="1" fold="1" page="0" pageScale="1" pageWidth="850" pageHeight="1100" math="0" shadow="0">
      <root>
        <mxCell id="0" />
        <mxCell id="1" parent="0" />
        <mxCell id="JZOo3K3JwjYTlDTyohgs-4" style="edgeStyle=orthogonalEdgeStyle;rounded=0;orthogonalLoop=1;jettySize=auto;html=1;exitX=1;exitY=0.5;exitDx=0;exitDy=0;fontSize=15;" edge="1" parent="1" source="JZOo3K3JwjYTlDTyohgs-1" target="JZOo3K3JwjYTlDTyohgs-2">
          <mxGeometry relative="1" as="geometry" />
        </mxCell>
        <mxCell id="JZOo3K3JwjYTlDTyohgs-1" value="&lt;div&gt;IH&lt;/div&gt;&lt;div&gt;32306-&amp;gt;NS9&lt;/div&gt;&lt;div&gt;32307-&amp;gt;NS10&lt;br&gt;&lt;/div&gt;" style="whiteSpace=wrap;html=1;aspect=fixed;fontSize=15;" vertex="1" parent="1">
          <mxGeometry x="160" y="270" width="100" height="100" as="geometry" />
        </mxCell>
        <mxCell id="JZOo3K3JwjYTlDTyohgs-7" style="edgeStyle=orthogonalEdgeStyle;rounded=0;orthogonalLoop=1;jettySize=auto;html=1;exitX=1;exitY=0.5;exitDx=0;exitDy=0;fontSize=15;" edge="1" parent="1" source="JZOo3K3JwjYTlDTyohgs-2" target="JZOo3K3JwjYTlDTyohgs-6">
          <mxGeometry relative="1" as="geometry" />
        </mxCell>
        <mxCell id="JZOo3K3JwjYTlDTyohgs-2" value="&lt;div&gt;NS9&lt;/div&gt;&lt;div&gt;.90&lt;br&gt;&lt;/div&gt;&lt;div&gt;&lt;br&gt;&lt;/div&gt;&lt;div&gt;no telnet command :(&lt;br&gt;&lt;/div&gt;" style="whiteSpace=wrap;html=1;aspect=fixed;fontSize=15;" vertex="1" parent="1">
          <mxGeometry x="640" y="270" width="100" height="100" as="geometry" />
        </mxCell>
        <mxCell id="JZOo3K3JwjYTlDTyohgs-5" value="" style="ellipse;shape=cloud;whiteSpace=wrap;html=1;fontSize=15;" vertex="1" parent="1">
          <mxGeometry x="370" y="270" width="120" height="80" as="geometry" />
        </mxCell>
        <mxCell id="JZOo3K3JwjYTlDTyohgs-6" value="&lt;div&gt;NS10&lt;/div&gt;&lt;div&gt;.100&lt;br&gt;&lt;/div&gt;&lt;div&gt;&lt;br&gt;&lt;/div&gt;&lt;div&gt;21,23,80&lt;br&gt;&lt;/div&gt;" style="whiteSpace=wrap;html=1;aspect=fixed;fontSize=15;" vertex="1" parent="1">
          <mxGeometry x="920" y="270" width="100" height="100" as="geometry" />
        </mxCell>
        <mxCell id="JZOo3K3JwjYTlDTyohgs-8" value="&lt;div&gt;@IH ssh user@localhost -p 32306 -L 32307:NS10_IP:23 -NT&lt;/div&gt;" style="text;html=1;align=center;verticalAlign=middle;resizable=0;points=[];autosize=1;strokeColor=none;fillColor=none;fontSize=15;" vertex="1" parent="1">
          <mxGeometry x="-15" y="455" width="430" height="30" as="geometry" />
        </mxCell>
        <mxCell id="JZOo3K3JwjYTlDTyohgs-9" value="@IH: telnet localhost&amp;nbsp; 32307 #yay I finally made it to NS10.&amp;nbsp; OMG!!!!!!!!!!!!!!!!!!!!!!!!!!!!!!!!!!!!!!!!!!!!!!!!!!!!!!!!!!!!!!!!!!!!!!!!!!!!!!!!!!!" style="text;html=1;align=center;verticalAlign=middle;resizable=0;points=[];autosize=1;strokeColor=none;fillColor=none;fontSize=15;" vertex="1" parent="1">
          <mxGeometry x="-40" y="490" width="800" height="30" as="geometry" />
        </mxCell>
      </root>
    </mxGraphModel>
  </diagram>
</mxfile>
